<svg t="1654490594071" class="icon" viewBox="0 0 1024 1024" version="1.1" xmlns="http://www.w3.org/2000/svg" p-id="13196" width="20" height="20"><path d="M965 864.6H65V218.8h900v645.8z m-830-70h760V288.8H135v505.8zM588.6 117.8h232.3v70H588.6z" fill="#594bc8" p-id="13197"></path><path d="M691.1 417.4H773v232.3h-81.9zM248.9 533.5c0 4.4 0.2 8.8 0.6 13.2h274.8c0.4-4.3 0.6-8.7 0.6-13.2 0-5.4-0.3-10.7-0.9-15.9H249.8c-0.6 5.3-0.9 10.6-0.9 15.9zM256.6 579.1c3.6 10.4 8.5 20.3 14.4 29.4h231.8c5.9-9.1 10.8-19 14.4-29.4H256.6zM300.2 640.9c23.7 19.2 53.9 30.7 86.8 30.7s63.1-11.5 86.8-30.7H300.2zM271.8 457.5c-5.7 8.6-10.5 17.9-14.2 27.8h258.7c-3.7-9.8-8.4-19.2-14.2-27.8H271.8zM472.4 425.1c-23.5-18.5-53.2-29.6-85.4-29.6-32.3 0-61.9 11.1-85.4 29.6h170.8z" fill="#594bc8" p-id="13198"></path><path d="M389.6 681.3c-81.5 0-147.8-66.3-147.8-147.8s66.3-147.8 147.8-147.8S537.4 452 537.4 533.5s-66.3 147.8-147.8 147.8z m0-265.6c-65 0-117.8 52.8-117.8 117.8s52.8 117.8 117.8 117.8 117.8-52.8 117.8-117.8-52.8-117.8-117.8-117.8z" fill="#594bc8" p-id="13199"></path></svg>