<svg t="1655025787958" class="icon" viewBox="0 0 1024 1024" version="1.1" xmlns="http://www.w3.org/2000/svg" p-id="2704" width="26" height="26"><path d="M977.92 245.9136H310.6816c-19.8144 0-35.84-16.0256-35.84-35.84s16.0256-35.84 35.84-35.84H977.92c19.8144 0 35.84 16.0256 35.84 35.84s-16.0256 35.84-35.84 35.84zM977.92 576.2048H310.6816c-19.8144 0-35.84-16.0256-35.84-35.84s16.0256-35.84 35.84-35.84H977.92c19.8144 0 35.84 16.0256 35.84 35.84s-16.0256 35.84-35.84 35.84zM977.92 924.416H310.6816c-19.8144 0-35.84-16.0256-35.84-35.84s16.0256-35.84 35.84-35.84H977.92c19.8144 0 35.84 16.0256 35.84 35.84s-16.0256 35.84-35.84 35.84z" p-id="2705"></path><path d="M81.7664 210.0736m-66.7136 0a66.7136 66.7136 0 1 0 133.4272 0 66.7136 66.7136 0 1 0-133.4272 0Z" p-id="2706"></path><path d="M81.7664 540.416m-66.7136 0a66.7136 66.7136 0 1 0 133.4272 0 66.7136 66.7136 0 1 0-133.4272 0Z" p-id="2707"></path><path d="M81.7664 884.224m-66.7136 0a66.7136 66.7136 0 1 0 133.4272 0 66.7136 66.7136 0 1 0-133.4272 0Z" p-id="2708"></path></svg>